<svg xmlns="http://www.w3.org/2000/svg" width="16" height="18" viewBox="0 0 16 18">
  <g id="다각형_1" data-name="다각형 1" transform="translate(0 18) rotate(-90)" fill="none">
    <path d="M7.257,3.1a2,2,0,0,1,3.486,0l5.58,9.921A2,2,0,0,1,14.58,16H3.42a2,2,0,0,1-1.743-2.981Z" stroke="none"/>
    <path d="M 9.000000953674316 3.079455375671387 C 8.824151039123535 3.079455375671387 8.387210845947266 3.129125595092773 8.12843132019043 3.58919620513916 L 2.548120498657227 13.50973606109619 C 2.29430103302002 13.96097564697266 2.46941089630127 14.35596561431885 2.55648136138916 14.50484561920166 C 2.643550872802734 14.65371608734131 2.901961326599121 14.99999618530273 3.41969108581543 14.99999618530273 L 14.58030128479004 14.99999618530273 C 15.09803104400635 14.99999618530273 15.3564510345459 14.65371608734131 15.44352149963379 14.5048360824585 C 15.53059101104736 14.35596561431885 15.70570087432861 13.96097564697266 15.45187091827393 13.50973606109619 L 9.871581077575684 3.589205741882324 C 9.612780570983887 3.129125595092773 9.175841331481934 3.079455375671387 9.000000953674316 3.079455375671387 M 9.000000953674316 2.079461097717285 C 9.680423736572266 2.079461097717285 10.3608455657959 2.419285774230957 10.74315071105957 3.098936080932617 L 16.32345008850098 13.01947593688965 C 17.07339096069336 14.35268592834473 16.10996055603027 15.99999618530273 14.58030128479004 15.99999618530273 L 3.41969108581543 15.99999618530273 C 1.890041351318359 15.99999618530273 0.9266109466552734 14.35268592834473 1.676540374755859 13.01947593688965 L 7.256851196289062 3.098936080932617 C 7.639156341552734 2.419285774230957 8.319578170776367 2.079461097717285 9.000000953674316 2.079461097717285 Z" stroke="none" fill="#dddae0"/>
  </g>
</svg>
